<svg width="16px" height="16px" viewBox="0 0 512 512"><path fill="#828282" d="M379.32,163.177c-60.229,0-69.692,29.564-84.807,52.854v1.118h-0.745c0.267-0.317,0.531-0.743,0.745-1.118   v-48.342H181.032c1.469,31.996,0,341.438,0,341.438h113.481V318.439c0-10.27,0.744-20.36,3.739-27.678   c8.228-20.348,9.406-41.56,40.734-41.56c41.104,0,57.503,31.353,57.503,77.243v182.682h113.511V313.352   C510.001,208.452,453.995,163.177,379.32,163.177z"/><path fill="#828282" d="M62.209,3C23.399,3-2,28.535-2,62.025c0,32.745,24.626,59.033,62.713,59.033h0.747   c39.582,0,64.234-26.288,64.233-59.033C124.945,28.535,101.042,3,62.209,3z"/><rect fill="#828282" height="341.438" width="113.538" x="4.704" y="167.689"/></svg>
